<?xml version="1.0" standalone="yes"?>
<svg xmlns="http://www.w3.org/2000/svg" width="1280" height="1280">
<path style="fill:#010101; stroke:none;" d="M0 0L0 1280L1280 1280L1280 0L0 0z"/>
<path style="fill:#efafa0; stroke:none;" d="M701 371L704 369L701 371z"/>
<path style="fill:#fffefe; stroke:none;" d="M704 369L677 376L660 388L645 404L643 407L638 417C635.612 436.956 629.57 451.734 635.444 472.349C638.307 482.4 646.429 490.437 649 500C669.665 514.557 685.598 530.029 713 528.96C723.994 528.531 734.333 523.372 745 523L752 520L754 517L753 519L754 519L754 516L766 510C767.435 503.692 780.394 486.179 786 483L792 461L792 439L792 438L787 421L784 412C779.933 412 773.898 400.868 774 397L771 398C768.518 390.553 759.149 385.612 753 381C749.983 378.737 746.313 378.748 747 376L722.192 370.373L704 369z"/>
<path style="fill:#efafa0; stroke:none;" d="M705 371L723 370C718.802 368.239 708.154 367.391 705 371M695 372L700 371L695 372M724 370L724 371L729 371L724 370M691 373L694 372L691 373M729 371L729 372L733 372L729 371z"/>
<path style="fill:#ff0101; stroke:none;" d="M687 372L688 373L687 372z"/>
<path style="fill:#efafa0; stroke:none;" d="M688.667 372.333L689.333 372.667L688.667 372.333M733 372L733 373L736 373L733 372z"/>
<path style="fill:#ff0101; stroke:none;" d="M684 373L685 374L684 373z"/>
<path style="fill:#efafa0; stroke:none;" d="M685.667 373.333L686.333 373.667L685.667 373.333M736 373L736 374L742 375L742 374L736 373M678 376L678 377L684 374L678 376z"/>
<path style="fill:#ff0101; stroke:none;" d="M679 375L680 376L679 375z"/>
<path style="fill:#efafa0; stroke:none;" d="M742 375L742 376L746 377L746 376L742 375z"/>
<path style="fill:#ff0101; stroke:none;" d="M744 375L745 376L744 375M675 377L676 378L675 377z"/>
<path style="fill:#efafa0; stroke:none;" d="M676.667 377.333L677.333 377.667L676.667 377.333M746 377L746 378L773 398C768.486 388.321 756.094 379.908 746 377z"/>
<path style="fill:#ff0101; stroke:none;" d="M748 377L749 378L748 377z"/>
<path style="fill:#efafa0; stroke:none;" d="M674 378L675 379L674 378z"/>
<path style="fill:#fbf50b; stroke:none;" d="M750 378L751 379L750 378z"/>
<path style="fill:#efafa0; stroke:none;" d="M660 388L661 389L674 380C668.799 379.15 663.26 384.33 660 388z"/>
<path style="fill:#ff0101; stroke:none;" d="M752 379L753 380L752 379z"/>
<path style="fill:#fbf50b; stroke:none;" d="M763 387L764 388L763 387z"/>
<path style="fill:#efafa0; stroke:none;" d="M659 388L651 397C654.689 395.278 659.093 392.398 659 388M650 397L649 400L650 397z"/>
<path style="fill:#ff0101; stroke:none;" d="M649 398L650 399L649 398z"/>
<path style="fill:#efafa0; stroke:none;" d="M773 398L782 413L783 413C781.896 407.293 778.014 401.034 773 398z"/>
<path style="fill:#fffefe; stroke:none;" d="M775 399L776 400L775 399z"/>
<path style="fill:#efafa0; stroke:none;" d="M648 400L649 401L648 400M647 401L646 404L647 401z"/>
<path style="fill:#ff0101; stroke:none;" d="M646 402L647 403L646 402z"/>
<path style="fill:#fbf50b; stroke:none;" d="M777 402L778 403L777 402M778 403L779 404L778 403z"/>
<path style="fill:#efafa0; stroke:none;" d="M645 405L646 406L645 405M644 406L645 407L644 406z"/>
<path style="fill:#fbf50b; stroke:none;" d="M780 406L781 407L780 406z"/>
<path style="fill:#efafa0; stroke:none;" d="M643 408L644 409L643 408M641.333 411.667L641.667 412.333L641.333 411.667M640 413L641 414L640 413M783 413L787 421L783 413M622 416L622 417L625 418L625 415L622 416z"/>
<path style="fill:#fffefe; stroke:none;" d="M625 415L624 418L622 416L621 416L602 422L594 428L593 428L592 426L587 431L573 435L571 439L565 439L564 443L560 442C560 445.688 551.67 450.29 548 450L539 458L524 470C522.621 474.923 516.971 480.815 512 482L508 487L509 490C500.768 493.79 491.238 510.843 487.083 519C485.278 522.544 482.057 531.409 478 532C479.608 536.823 474.36 545.59 472 545L470 550L471 553L469 559L467 558L469 560L468 564L465 565L461 580L461 581L463 582C459.578 585.366 455.375 601.287 459 605L459 606C456.034 608.552 456.196 613.248 456.154 617C456.058 625.572 452.039 649.144 459 655L459 656L459 657L457 657C459.168 667.391 458.756 683.742 466 692L464 693L464 694L468 706L469 709L472 710L474 714L473 719L477 727L480 733C485.672 737.312 488.548 751.688 497 750C498.724 742.603 513.436 731.8 521 731L531 727L532 724L534 726L535 726L537 725L538 725L539 722L546 720L547 720L547 722L548 722L553 719L567 721L574 719L580 720L581 720L581 723L582 723C583.711 720.605 587.655 722.324 588 725L590 723L591 723L593 727L595 725C605.357 733.449 625.77 741.784 628 757C632.527 757 635.112 767.079 635 771L637 770L637 771L641 784C639.232 791.001 642.68 798.735 642.406 806C641.65 826.029 635.386 855.888 620 870C618.83 874.588 614.851 877.735 611.857 881.285C602.863 891.949 583.073 909.985 568 909L553 914L563 920L564 920L579 922L580 922L613 921C615.807 924.084 622.816 922.078 626 920L627 920L642.714 918.825L690 906L696 904L695 902L698 903L700 902L706 899L708 898L708 896L710 897L710 895L711 895L712 896C712.391 892.955 714.126 892.927 717 893C717.391 889.954 719.126 889.927 722 890C723.806 884.248 736.265 877.059 742 876L748 871L747 868L774 845L774 844L772 845L772 844L784 832L783 829L786 829L790 823L794 817L793 814L795 815C794.998 810.253 797.408 807.872 801 805L801 804C796.759 804 802.714 796.74 805 796L804 793L806 794L809 787L811 782L810 779L812 779L815 761C818.747 758.393 819.133 753.16 818 749C822.424 745.633 824.947 728.593 822 724C824.378 720.909 826.267 714.9 823 712C825.213 704.124 826.525 691.487 823 684L825 684L822 680L822 679C826.466 671.244 819.841 653.996 817.479 645.961C816.413 642.334 816.104 638.352 813 636L812 625L809 624L809 617C802.611 609.932 799.43 599.052 794.464 590.841C786.177 577.138 776.236 565.227 766.159 552.869C759.66 544.898 752.154 535.333 741 534L738 535L730 539L729 539L729 537L728 537L725 537L724 540L722 538L721 538L720 538L704 538C698.851 539.288 692.829 539.081 689 535L688 535C681.612 537.364 668.319 529.659 664 525L662 526L638 501L641 503L637 497L632 493L633 490L631 491L632 488L630 489L630 488C630.303 485.556 630.437 484.972 628 485C625.844 470.403 619.975 456.873 622.146 441.714C623.126 434.872 629.317 420.67 625 415z"/>
<path style="fill:#efafa0; stroke:none;" d="M626 415L627 419L628 419L626 415M639.333 415.667L639.667 416.333L639.333 415.667z"/>
<path style="fill:#ff0101; stroke:none;" d="M620 416L621 417L620 416z"/>
<path style="fill:#efafa0; stroke:none;" d="M617 419L621 418L617 419z"/>
<path style="fill:#ff0101; stroke:none;" d="M613 418L614 419L613 418z"/>
<path style="fill:#efafa0; stroke:none;" d="M614.667 418.333L615.333 418.667L614.667 418.333M638 418L637 421L638 418z"/>
<path style="fill:#fffefe; stroke:none;" d="M786 418L787 419L786 418z"/>
<path style="fill:#efafa0; stroke:none;" d="M610 419L610 421L612 419L610 419M613 419L614 420L613 419z"/>
<path style="fill:#ff0101; stroke:none;" d="M607 420L608 421L607 420z"/>
<path style="fill:#efafa0; stroke:none;" d="M608 420L609 421L608 420M626 420L627 421L626 420z"/>
<path style="fill:#ff0101; stroke:none;" d="M604 421L605 422L604 421z"/>
<path style="fill:#efafa0; stroke:none;" d="M605 421L606 422L605 421M607 421L608 422L607 421M787 421L788 427L789 427L787 421M603.667 422.333L604.333 422.667L603.667 422.333M636 422L637 423L636 422M600.667 423.333L601.333 423.667L600.667 423.333M625 423L626 424L625 423z"/>
<path style="fill:#fbf50b; stroke:none;" d="M788 423L789 424L788 423M596 424L597 425L596 424z"/>
<path style="fill:#efafa0; stroke:none;" d="M597 424L598 425L597 424M625 425L626 426L625 425M635 425L636 426L635 425M593.333 426.667L593.667 427.333L593.333 426.667M591 427L592 428L591 427M624 427L624 430L625 430L624 427M789 427L791 438L792 438L789 427M585 429L587 431L587 429L585 429M583.667 430.333L584.333 430.667L583.667 430.333z"/>
<path style="fill:#ff0101; stroke:none;" d="M790 430L791 431L790 430z"/>
<path style="fill:#efafa0; stroke:none;" d="M581.667 431.333L582.333 431.667L581.667 431.333M623 431L624 432L623 431z"/>
<path style="fill:#fbf50b; stroke:none;" d="M578 432L579 433L578 432z"/>
<path style="fill:#efafa0; stroke:none;" d="M579.667 432.333L580.333 432.667L579.667 432.333M577.667 433.333L578.333 433.667L577.667 433.333M633.333 433.667L633.667 434.333L633.333 433.667z"/>
<path style="fill:#fbf50b; stroke:none;" d="M574 434L575 435L574 434z"/>
<path style="fill:#efafa0; stroke:none;" d="M575.667 434.333L576.333 434.667L575.667 434.333M574 435L575 436L574 435z"/>
<path style="fill:#ff0101; stroke:none;" d="M791 435L792 436L791 435z"/>
<path style="fill:#efafa0; stroke:none;" d="M571.667 436.333L572.333 436.667L571.667 436.333M622.333 436.667L622.667 437.333L622.333 436.667M569 437L569 439L571 439L571 437L569 437M633 437L634 438L633 437M566 439L567 440L566 439M632.333 439.667L632.667 440.333L632.333 439.667M791 439L791 443L792 443L791 439M564.667 440.333L565.333 440.667L564.667 440.333M622 440L621 444L622 440M562 441L564 443L564 441L562 441M561 442L562 443L561 442M559.667 443.333L560.333 443.667L559.667 443.333M557 444L558 445L557 444z"/>
<path style="fill:#ff0101; stroke:none;" d="M792 444L793 445L792 444z"/>
<path style="fill:#efafa0; stroke:none;" d="M556 445L553 447L553 448L556 445M791 445L791 454L793 454L793 445L791 445M549 451L553 448L549 451M539 458L540 459L549 452L539 458z"/>
<path style="fill:#ff0101; stroke:none;" d="M545 452L546 453L545 452z"/>
<path style="fill:#efafa0; stroke:none;" d="M622 455L622 459L623 459L622 455M791 456L790 460L791 456M538 458L533 463L538 458M632.333 458.667L632.667 459.333L632.333 458.667z"/>
<path style="fill:#ff0101; stroke:none;" d="M536 459L537 460L536 459z"/>
<path style="fill:#efafa0; stroke:none;" d="M791 461L790 463L792 463L791 461M622 462L623 463L622 462M633 462L634 463L633 462z"/>
<path style="fill:#fffefe; stroke:none;" d="M531 463L532 464L531 463z"/>
<path style="fill:#efafa0; stroke:none;" d="M532 463L525 471L532 463M623.333 464.667L623.667 465.333L623.333 464.667M633.333 464.667L633.667 465.333L633.333 464.667M790 464L788 475L789 475L790 464M623 467L624 468L623 467M634 467L635 468L634 467z"/>
<path style="fill:#ff0101; stroke:none;" d="M790 468L791 469L790 468z"/>
<path style="fill:#efafa0; stroke:none;" d="M624.333 469.667L624.667 470.333L624.333 469.667M634 469L635 470L634 469M513 483L525 471L513 483M635 471L636 472L635 471M625 473L625 476L626 476L625 473M635 473L636 474L635 473M636 474L637 475L636 474M787 475L785 482L786 482L787 475M626 476L626 479L627 479L626 476M636 476L637 477L636 476M637 477L638 478L637 477M627 479L627 482L628 482L627 479M638.333 480.667L638.667 481.333L638.333 480.667z"/>
<path style="fill:#fbf50b; stroke:none;" d="M786 480L787 481L786 480z"/>
<path style="fill:#efafa0; stroke:none;" d="M628 482L628 485L629 485L628 482z"/>
<path style="fill:#fbf50b; stroke:none;" d="M511 483L512 484L511 483z"/>
<path style="fill:#efafa0; stroke:none;" d="M512 483L509 488L512 483M783 483L765 509C773.835 504.846 782.288 492.218 785 483L783 483z"/>
<path style="fill:#ff0101; stroke:none;" d="M510 484L511 485L510 484z"/>
<path style="fill:#efafa0; stroke:none;" d="M640.333 484.667L640.667 485.333L640.333 484.667M629 486L630 487L629 486M630.333 487.667L630.667 488.333L630.333 487.667M507 488L490 513C497.104 508.69 505.486 495.548 509 488L507 488M642.333 488.667L642.667 489.333L642.333 488.667M631.333 489.667L631.667 490.333L631.333 489.667z"/>
<path style="fill:#fbf50b; stroke:none;" d="M505 490L506 491L505 490z"/>
<path style="fill:#efafa0; stroke:none;" d="M643 490L644 491L643 490z"/>
<path style="fill:#fffefe; stroke:none;" d="M781 490L782 491L781 490z"/>
<path style="fill:#ff0101; stroke:none;" d="M504 491L505 492L504 491z"/>
<path style="fill:#efafa0; stroke:none;" d="M632.333 491.667L632.667 492.333L632.333 491.667M644.333 491.667L644.667 492.333L644.333 491.667M645 493L646 494L645 493z"/>
<path style="fill:#fbf50b; stroke:none;" d="M779 493L780 494L779 493z"/>
<path style="fill:#efafa0; stroke:none;" d="M634.333 494.667L634.667 495.333L634.333 494.667z"/>
<path style="fill:#fbf50b; stroke:none;" d="M501 495L502 496L501 495z"/>
<path style="fill:#efafa0; stroke:none;" d="M646 495L647 496L646 495M635.333 496.667L635.667 497.333L635.333 496.667M647 496L648 497L647 496z"/>
<path style="fill:#fbf50b; stroke:none;" d="M777 496L778 497L777 496z"/>
<path style="fill:#efafa0; stroke:none;" d="M648 497L648 499L650 499L648 497M636 498L638 501L636 498z"/>
<path style="fill:#ff0101; stroke:none;" d="M498 499L499 500L498 499z"/>
<path style="fill:#efafa0; stroke:none;" d="M650 500L651 501L650 500M638 501L644 508L638 501M651 501L652 502L651 501z"/>
<path style="fill:#fbf50b; stroke:none;" d="M773 501L774 502L773 501z"/>
<path style="fill:#efafa0; stroke:none;" d="M652 502L653 503L652 502z"/>
<path style="fill:#fffefe; stroke:none;" d="M772 502L773 503L772 502z"/>
<path style="fill:#ff0101; stroke:none;" d="M495 503L496 504L495 503z"/>
<path style="fill:#efafa0; stroke:none;" d="M653 503L659 509L653 503z"/>
<path style="fill:#ff0101; stroke:none;" d="M493 506L494 507L493 506z"/>
<path style="fill:#efafa0; stroke:none;" d="M644 508L653 517L644 508z"/>
<path style="fill:#ff0101; stroke:none;" d="M491 509L492 510L491 509z"/>
<path style="fill:#efafa0; stroke:none;" d="M659 509L660 510L659 509M754 516L754 517L765 509L754 516M660 510L661 511L660 510z"/>
<path style="fill:#fbf50b; stroke:none;" d="M764 510L765 511L764 510z"/>
<path style="fill:#efafa0; stroke:none;" d="M661 511L665 514L661 511M489 513L487 518L489 513M665 514L668 516L665 514M668 516L671 518L668 516M653 517L661 523L661 522L653 517M751 519L754 517L751 519M486 518L483 525L486 518M671.667 518.333L672.333 518.667L671.667 518.333z"/>
<path style="fill:#fbf50b; stroke:none;" d="M485 519L486 520L485 519z"/>
<path style="fill:#efafa0; stroke:none;" d="M673 519L673 520L679 522L679 521L673 519M745 521L745 522L751 520L745 521M679.667 522.333L680.333 522.667L679.667 522.333M726 527L726 528L744 523L726 527z"/>
<path style="fill:#fbf50b; stroke:none;" d="M745 522L746 523L745 522z"/>
<path style="fill:#efafa0; stroke:none;" d="M661 523L663 526L664 525L663 523L661 523M681.667 523.333L682.333 523.667L681.667 523.333M683 524L683 525L686 525L683 524M482 525L479 533L480 533L482 525M664 525L673 530L673 529L664 525M686 525L686 526L689 526L686 525M689 526L689 527L693 527L689 526z"/>
<path style="fill:#fffefe; stroke:none;" d="M669 527L670 528L669 527z"/>
<path style="fill:#efafa0; stroke:none;" d="M693 527L693 528L698 528L693 527z"/>
<path style="fill:#ff0101; stroke:none;" d="M698 528L699 529L698 528z"/>
<path style="fill:#efafa0; stroke:none;" d="M699.667 528.333L700.333 528.667L699.667 528.333M702 528L702 529L706 529L702 528M717 528L717 529L726 529L717 528M710 529L710 530L715 530L710 529M673 530L688 537L673 530M741 534L757 543C754.104 537.762 747.219 529.856 741 534M478 533L475 541L476 541L478 533z"/>
<path style="fill:#fffefe; stroke:none;" d="M682 533L683 534L682 533M685 534L686 535L685 534z"/>
<path style="fill:#ff0101; stroke:none;" d="M686 534L687 535L686 534z"/>
<path style="fill:#efafa0; stroke:none;" d="M737 536L731 538L738 535L741 536C739.444 534.187 738.556 534.187 737 536z"/>
<path style="fill:#ff0101; stroke:none;" d="M749 534L750 535L749 534M689 535L690 536L689 535M734 535L735 536L734 535z"/>
<path style="fill:#fffefe; stroke:none;" d="M736 535L737 536L736 535z"/>
<path style="fill:#efafa0; stroke:none;" d="M689 536L689 537L702 539L689 536z"/>
<path style="fill:#fbf50b; stroke:none;" d="M693 536L694 537L693 536z"/>
<path style="fill:#ff0101; stroke:none;" d="M729 536L730 537L729 536z"/>
<path style="fill:#fbf50b; stroke:none;" d="M730 536L731 537L730 536z"/>
<path style="fill:#ff0101; stroke:none;" d="M751 536L752 537L751 536z"/>
<path style="fill:#fffefe; stroke:none;" d="M698 537L699 538L698 537z"/>
<path style="fill:#fbf50b; stroke:none;" d="M699 537L700 538L699 537z"/>
<path style="fill:#ff0101; stroke:none;" d="M700 537L701 538L700 537M723 537L724 538L723 537z"/>
<path style="fill:#fbf50b; stroke:none;" d="M724 537L725 538L724 537z"/>
<path style="fill:#efafa0; stroke:none;" d="M726 537L726 539L728 539L728 537L726 537M729.333 537.667L729.667 538.333L729.333 537.667M704 538L704 540L709 540L709 538L704 538M716 538L716 540L720 540L720 538L716 538M722 540L725 538L722 540z"/>
<path style="fill:#fbf50b; stroke:none;" d="M753 538L754 539L753 538M754 539L755 540L754 539M755 540L756 541L755 540z"/>
<path style="fill:#efafa0; stroke:none;" d="M474 541L473 546L474 546L474 541M757 543L763 549L757 543M472.333 546.667L472.667 547.333L472.333 546.667M471.333 548.667L471.667 549.333L471.333 548.667M763 549C766.698 556.02 775.192 567 782 571C778.137 563.245 770.727 553.093 763 549z"/>
<path style="fill:#fbf50b; stroke:none;" d="M764 549L765 550L764 549z"/>
<path style="fill:#efafa0; stroke:none;" d="M470.333 551.667L470.667 552.333L470.333 551.667M469 554L470 555L469 554z"/>
<path style="fill:#ff0101; stroke:none;" d="M769 554L770 555L769 554z"/>
<path style="fill:#efafa0; stroke:none;" d="M468.333 557.667L468.667 558.333L468.333 557.667M467 559L467 561L469 561L467 559z"/>
<path style="fill:#fffefe; stroke:none;" d="M773 559L774 560L773 559M774 560L775 561L774 560z"/>
<path style="fill:#efafa0; stroke:none;" d="M466 562L466 564L468 564L466 562z"/>
<path style="fill:#fffefe; stroke:none;" d="M778 565L779 566L778 565z"/>
<path style="fill:#efafa0; stroke:none;" d="M465 567L466 568L465 567M464 568L464 571L465 571L464 568z"/>
<path style="fill:#fbf50b; stroke:none;" d="M781 569L782 570L781 569z"/>
<path style="fill:#efafa0; stroke:none;" d="M782 571L787 578L782 571M463 572L464 573L463 572z"/>
<path style="fill:#ff0101; stroke:none;" d="M784 573L785 574L784 573M786 576L787 577L786 576z"/>
<path style="fill:#efafa0; stroke:none;" d="M787 578L792 586L787 578M461.667 579.333L462.333 579.667L461.667 579.333z"/>
<path style="fill:#fbf50b; stroke:none;" d="M788 579L789 580L788 579z"/>
<path style="fill:#efafa0; stroke:none;" d="M461 581L461 583L463 581L461 581z"/>
<path style="fill:#ff0101; stroke:none;" d="M790 582L791 583L790 582z"/>
<path style="fill:#efafa0; stroke:none;" d="M792 586L795 591L792 586M460 587L461 588L460 587M459 589L460 590L459 589M795 591L796 592L795 591M459 592L460 593L459 592M795 593L798 596L795 593M458 595L459 596L458 595M798.333 596.667L798.667 597.333L798.333 596.667M458 598L459 599L458 598M799.333 598.667L799.667 599.333L799.333 598.667M800.333 600.667L800.667 601.333L800.333 600.667M457.333 601.667L457.667 602.333L457.333 601.667M801.333 602.667L801.667 603.333L801.333 602.667M802.333 604.667L802.667 605.333L802.333 604.667M457.667 605.333L458.333 605.667L457.667 605.333M803.333 606.667L803.667 607.333L803.333 606.667M804.333 608.667L804.667 609.333L804.333 608.667M456.333 610.667L456.667 611.333L456.333 610.667M805 610L807 613L805 610M807.333 615.667L807.667 616.333L807.333 615.667M456.333 617.667L456.667 618.333L456.333 617.667M808 618L809 619L808 618M809.333 620.667L809.667 621.333L809.333 620.667M810 622L809 624L811 624L810 622M811 626L812 627L811 626M812 629L813 630L812 629M813 630L813 633L814 633L813 630M814 633L813 636L814 633M815.333 637.667L815.667 638.333L815.333 637.667M816 640L816 643L817 643L816 640M456.333 642.667L456.667 643.333L456.333 642.667M817 644L817 647L818 647L817 644M818.333 647.667L818.667 648.333L818.333 647.667M456.333 650.667L456.667 651.333L456.333 650.667M818 650L819 651L818 650M819 651L819 655L820 655L819 651M457 655L457 657L459 657L459 655L457 655M457 659L458 660L457 659M820 659L821 660L820 659M458.333 662.667L458.667 663.333L458.333 662.667M821 662L822 663L821 662M821 665L822 666L821 665M458 666L459 667L458 666M822 667L823 668L822 667M459 669L460 670L459 669M822 671L823 672L822 671M459 672L460 673L459 672M460 674L461 675L460 674M823 674L823 677L824 677L823 674M823 678L824 681L823 678M461 679L462 680L461 679M461 681L462 682L461 681M462 683L463 684L462 683M823 684L824 687L825 687L825 684L823 684M462 685L463 686L462 685M463 689L464 690L463 689M464 691L464 693L466 691L464 691M824 691L824 698L825 698L824 691M465 694L465 697L466 697L465 694M466 697L466 700L467 700L466 697M467 700L467 703L468 703L467 700M468.333 703.667L468.667 704.333L468.333 703.667M469.333 706.667L469.667 707.333L469.333 706.667M824 706L823 712L824 706M470 709L470 711L472 709L470 709M471 711L471 714L472 714L471 711M472 714L472 716L474 714L472 714M473.333 716.667L473.667 717.333L473.333 716.667M824 717L824 720L825 720L824 717M474 719L476 725L477 725L474 719M552 719L551 721L553 721L552 719M554 720L554 721L560 721L560 719L554 720M567 719L573 721L567 719M574 719L574 721L576 721L574 719M546.333 720.667L546.667 721.333L546.333 720.667M548 720L548 722L550 722L550 720L548 720M577 720L577 722L579 722L577 720M580.333 720.667L580.667 721.333L580.333 720.667z"/>
<path style="fill:#fbf50b; stroke:none;" d="M824 720L825 721L824 720z"/>
<path style="fill:#efafa0; stroke:none;" d="M538 722C540.262 724.381 543.065 723.394 545 721L538 722z"/>
<path style="fill:#ff0101; stroke:none;" d="M576 721L577 722L576 721z"/>
<path style="fill:#efafa0; stroke:none;" d="M582 721C583.759 723.316 585.852 724.262 588 722L585 723L582 721M535 723L535 725L537 725L537 723L535 723z"/>
<path style="fill:#ff0101; stroke:none;" d="M541 723L542 724L541 723M584 723L585 724L584 723z"/>
<path style="fill:#efafa0; stroke:none;" d="M589 724L593 726L591 723L589 724M823 723L822 725L824 725L823 723M531 727L534 724L531 727z"/>
<path style="fill:#ff0101; stroke:none;" d="M538 724L539 725L538 724z"/>
<path style="fill:#efafa0; stroke:none;" d="M477 725L478 726L477 725z"/>
<path style="fill:#ff0101; stroke:none;" d="M535 725L536 726L535 725z"/>
<path style="fill:#efafa0; stroke:none;" d="M594 725L594 727L596 727L594 725M521 731L529 726L521 731M596 727L617 741C612.677 734.914 603.828 726.99 596 727M478 727L481 732L478 727z"/>
<path style="fill:#ff0101; stroke:none;" d="M529 727L530 728L529 727z"/>
<path style="fill:#efafa0; stroke:none;" d="M823.333 727.667L823.667 728.333L823.333 727.667z"/>
<path style="fill:#fffefe; stroke:none;" d="M478 729L479 730L478 729z"/>
<path style="fill:#efafa0; stroke:none;" d="M496 749L521 731C512.872 731.187 499.482 741.854 496 749z"/>
<path style="fill:#fffefe; stroke:none;" d="M601 730L602 731L601 730z"/>
<path style="fill:#efafa0; stroke:none;" d="M822.333 732.667L822.667 733.333L822.333 732.667M481.333 733.667L481.667 734.333L481.333 733.667z"/>
<path style="fill:#fffefe; stroke:none;" d="M517 733L518 734L517 733z"/>
<path style="fill:#efafa0; stroke:none;" d="M482 735C483.26 738.688 490.001 755.623 495 750L482 735M822 735L821 737L823 737L822 735z"/>
<path style="fill:#fffefe; stroke:none;" d="M512 736L513 737L512 736z"/>
<path style="fill:#fbf50b; stroke:none;" d="M610 736L611 737L610 736z"/>
<path style="fill:#ff0101; stroke:none;" d="M611 737L612 738L611 737z"/>
<path style="fill:#fbf50b; stroke:none;" d="M822 737L823 738L822 737M483 738L484 739L483 738z"/>
<path style="fill:#efafa0; stroke:none;" d="M821 738L822 739L821 738M821 740L821 743L822 743L821 740z"/>
<path style="fill:#ff0101; stroke:none;" d="M504 742L505 743L504 742M503 743L504 744L503 743z"/>
<path style="fill:#efafa0; stroke:none;" d="M619 743L629 756L619 743M820.333 746.667L820.667 747.333L820.333 746.667z"/>
<path style="fill:#fbf50b; stroke:none;" d="M622 748L623 749L622 748z"/>
<path style="fill:#efafa0; stroke:none;" d="M818 749L819 753L820 753L818 749z"/>
<path style="fill:#fffefe; stroke:none;" d="M490 750L491 751L490 750M492 752L493 753L492 752z"/>
<path style="fill:#ff0101; stroke:none;" d="M493 752L494 753L493 752z"/>
<path style="fill:#efafa0; stroke:none;" d="M818 753L819 754L818 753M818.333 755.667L818.667 756.333L818.333 755.667M629 756L633 766L634 766L629 756M817 757L818 758L817 757M817.333 759.667L817.667 760.333L817.333 759.667M815 761L816 764L817 764L817 761L815 761M815 764L816 765L815 764M815 766L814 771L815 771L815 766M635.333 768.667L635.667 769.333L635.333 768.667M636.333 770.667L636.667 771.333L636.333 770.667M813 771L811 777L813 771M638 776L638 779L639 779L638 776M810.333 779.667L810.667 780.333L810.333 779.667M639 782L640 783L639 782M809 782L808 786L809 786L809 782M640 784L641 785L640 784z"/>
<path style="fill:#ff0101; stroke:none;" d="M809 784L810 785L809 784z"/>
<path style="fill:#efafa0; stroke:none;" d="M807.333 787.667L807.667 788.333L807.333 787.667M806 789L805 793L806 793L806 789M804.333 793.667L804.667 794.333L804.333 793.667M641 794L641 797L642 797L641 794M802 796L799 805L800 805L804 796L802 796z"/>
<path style="fill:#fbf50b; stroke:none;" d="M803 798L804 799L803 798z"/>
<path style="fill:#fffefe; stroke:none;" d="M802 800L803 801L802 800M801 802L802 803L801 802z"/>
<path style="fill:#efafa0; stroke:none;" d="M642 803L642 807L643 807L642 803M798 806L794 814L795 814L798 806z"/>
<path style="fill:#fbf50b; stroke:none;" d="M797 809L798 810L797 809z"/>
<path style="fill:#ff0101; stroke:none;" d="M796 811L797 812L796 811z"/>
<path style="fill:#efafa0; stroke:none;" d="M641.333 813.667L641.667 814.333L641.333 813.667z"/>
<path style="fill:#ff0101; stroke:none;" d="M795 813L796 814L795 813z"/>
<path style="fill:#efafa0; stroke:none;" d="M793.333 814.667L793.667 815.333L793.333 814.667M792 816L789 822L790 822L792 816z"/>
<path style="fill:#ff0101; stroke:none;" d="M792 818L793 819L792 818z"/>
<path style="fill:#fbf50b; stroke:none;" d="M791 819L792 820L791 819z"/>
<path style="fill:#efafa0; stroke:none;" d="M640.333 821.667L640.667 822.333L640.333 821.667z"/>
<path style="fill:#ff0101; stroke:none;" d="M790 821L791 822L790 821z"/>
<path style="fill:#efafa0; stroke:none;" d="M788 822L785 828L788 822z"/>
<path style="fill:#fffefe; stroke:none;" d="M788 824L789 825L788 824z"/>
<path style="fill:#ff0101; stroke:none;" d="M786 827L787 828L786 827z"/>
<path style="fill:#efafa0; stroke:none;" d="M784 828L783 831L784 828M639 829L640 830L639 829z"/>
<path style="fill:#ff0101; stroke:none;" d="M784 830L785 831L784 830z"/>
<path style="fill:#efafa0; stroke:none;" d="M638 831L639 832L638 831M781 831L772 845L783 831L781 831M638 833L639 834L638 833z"/>
<path style="fill:#fffefe; stroke:none;" d="M781 834L782 835L781 834z"/>
<path style="fill:#efafa0; stroke:none;" d="M636 838L637 839L636 838z"/>
<path style="fill:#ff0101; stroke:none;" d="M778 838L779 839L778 838z"/>
<path style="fill:#fffefe; stroke:none;" d="M777 839L778 840L777 839z"/>
<path style="fill:#efafa0; stroke:none;" d="M635 841L636 842L635 841z"/>
<path style="fill:#ff0101; stroke:none;" d="M774 843L775 844L774 843z"/>
<path style="fill:#efafa0; stroke:none;" d="M634 845L635 846L634 845M771 845L762 857C765.719 854.325 771.161 849.883 771 845M633 846L634 847L633 846M632 849L633 850L632 849z"/>
<path style="fill:#ff0101; stroke:none;" d="M768 850L769 851L768 850z"/>
<path style="fill:#efafa0; stroke:none;" d="M629 856L630 857L629 856M628 857L629 858L628 857M761 857L762 858L761 857M760 858L761 859L760 858M627 859L628 860L627 859M759 859L760 860L759 859M747 870L759 860L747 870M625.333 862.667L625.667 863.333L625.333 862.667M624 864L625 865L624 864M623 866L624 867L623 866z"/>
<path style="fill:#fbf50b; stroke:none;" d="M752 866L753 867L752 866z"/>
<path style="fill:#efafa0; stroke:none;" d="M622 867L623 868L622 867M621 869L622 870L621 869M741 875L747 870L741 875M619 871L619 873L621 871L619 871z"/>
<path style="fill:#fffefe; stroke:none;" d="M745 872L746 873L745 872z"/>
<path style="fill:#efafa0; stroke:none;" d="M618 873L619 874L618 873M617 874L618 875L617 874M616.333 875.667L616.667 876.333L616.333 875.667M721 888L721 889C728.299 886.674 736.348 881.065 741 875L721 888z"/>
<path style="fill:#ff0101; stroke:none;" d="M740 876L741 877L740 876z"/>
<path style="fill:#efafa0; stroke:none;" d="M615 877L616 878L615 877M614 878L615 879L614 878M613 879L614 880L613 879z"/>
<path style="fill:#ff0101; stroke:none;" d="M736 879L737 880L736 879z"/>
<path style="fill:#efafa0; stroke:none;" d="M611 881L612 882L611 881M610 882L605 888L610 882z"/>
<path style="fill:#ff0101; stroke:none;" d="M729 884L730 885L729 884M726 886L727 887L726 886M723 888L724 889L723 888z"/>
<path style="fill:#efafa0; stroke:none;" d="M603 889L604 890L603 889M716 891L716 892L721 890L716 891M602 890L603 891L602 890M601 891L602 892L601 891z"/>
<path style="fill:#fbf50b; stroke:none;" d="M718 891L719 892L718 891z"/>
<path style="fill:#efafa0; stroke:none;" d="M598 894L601 892L598 894M711 894L711 895L716 893L711 894M597 894L598 895L597 894M594 897L597 895L594 897M710 895L711 896L710 895M708 896L709 897L708 896M593 897L594 898L593 897M706 897L707 898L706 897M591.667 898.333L592.333 898.667L591.667 898.333M700 901L705 899L700 901M590 899L591 900L590 899M588.667 900.333L589.333 900.667L588.667 900.333z"/>
<path style="fill:#ff0101; stroke:none;" d="M585 901L586 902L585 901z"/>
<path style="fill:#efafa0; stroke:none;" d="M586.667 901.333L587.333 901.667L586.667 901.333M698 901L699 902L698 901z"/>
<path style="fill:#ff0101; stroke:none;" d="M583 902L584 903L583 902z"/>
<path style="fill:#efafa0; stroke:none;" d="M582 903L582 904L586 903L582 903M695.667 902.333L696.333 902.667L695.667 902.333M693.667 903.333L694.333 903.667L693.667 903.333M578 905L578 906L582 905L578 905M690 906L693 905L690 906M688 905L689 906L688 905z"/>
<path style="fill:#ff0101; stroke:none;" d="M575 906L576 907L575 906z"/>
<path style="fill:#efafa0; stroke:none;" d="M569 909L569 910L578 907L569 909M686.667 906.333L687.333 906.667L686.667 906.333z"/>
<path style="fill:#ff0101; stroke:none;" d="M573 907L574 908L573 907M570 908L571 909L570 908z"/>
<path style="fill:#efafa0; stroke:none;" d="M662 914L662 915L682 909L662 914z"/>
<path style="fill:#fbf50b; stroke:none;" d="M565 910L566 911L565 910z"/>
<path style="fill:#efafa0; stroke:none;" d="M566.667 910.333L567.333 910.667L566.667 910.333z"/>
<path style="fill:#ff0101; stroke:none;" d="M561 911L562 912L561 911z"/>
<path style="fill:#efafa0; stroke:none;" d="M558 914L565 912L558 914z"/>
<path style="fill:#ff0101; stroke:none;" d="M557 912L558 913L557 912M551 913L552 914L551 913z"/>
<path style="fill:#efafa0; stroke:none;" d="M550 914L550 916L558 918L558 917L553 914L557 914L550 914M654 916L654 917L662 916L654 916M650 917L650 918L654 918L650 917M558 918L558 919L563 919L558 918M564 919L564 920L568 920L564 919M643 918L637 920L637 921L643 918M645 918L645 919L649 919L645 918M569 919L572 921L572 920L569 919M573.667 920.333L574.333 920.667L573.667 920.333M577 920L577 922L579 922L577 920M580 921L580 922L584 922L580 921M626 920L624 921L624 922L626 920M630 920L629 922L631 922L630 920M633 920L633 921L636 921L633 920z"/>
<path style="fill:#ff0101; stroke:none;" d="M576 921L577 922L576 921z"/>
<path style="fill:#efafa0; stroke:none;" d="M586 921L590 923L590 922L586 921M594 922L594 923C599.091 923 609.486 925.022 613 921L594 922M617 922L617 923L622 921L617 922z"/>
<path style="fill:#ff0101; stroke:none;" d="M585 922L586 923L585 922z"/>
</svg>
